# xmcd
#
# Track frame offsets:
# 150
# 19031
# 36421
# 55324
# 67219
# 83802
# 98939
# 111314
# 127004
# 145286
#
# Disc length: 2168 seconds
#
#
# Revision: 0
# Processed by: cddbd v1.5.2PL0 Copyright (c) Steve Scherf et al.
# Submitted via: FreeRIP 2.945 
#
DISCID=9508760a
DTITLE=Doug Stone - The First Christmas
DYEAR=1900
DGENRE=Country
TTITLE0=The First Christmas
TTITLE1=The Warmest Winter
TTITLE2=An Angel Like You
TTITLE3=All I Want for Christmas is You
TTITLE4=When December Comes Around
TTITLE5=Just Put A Ribbon In Your Hair
TTITLE6=Santa's Flying A 747 Tonight
TTITLE7=Three Little Pennies
TTITLE8=Sailing Home For Christmas
TTITLE9=A Christmas Card
EXTD=
EXTT0=
EXTT1=
EXTT2=
EXTT3=
EXTT4=
EXTT5=
EXTT6=
EXTT7=
EXTT8=
EXTT9=
PLAYORDER=
